<svg width="28" height="23" viewBox="0 0 28 23" fill="none" xmlns="http://www.w3.org/2000/svg">
<path d="M18.75 17.875L17.3125 12.4375L21.6875 8.8125L16.0625 8.5L14 3.25L11.9375 8.5L6.25 8.8125L10.6875 12.4375L9.25 17.875L14 14.8125L18.75 17.875ZM25.4375 9.625C24.9375 10.1667 24.6875 10.7917 24.6875 11.5C24.6875 12.2083 24.9375 12.8333 25.4375 13.375C25.9792 13.9167 26.6042 14.1875 27.3125 14.1875V19.5C27.3125 20.2083 27.0417 20.8333 26.5 21.375C26 21.9167 25.3958 22.1875 24.6875 22.1875H3.3125C2.60417 22.1875 1.97917 21.9167 1.4375 21.375C0.9375 20.8333 0.6875 20.2083 0.6875 19.5V14.1875C1.4375 14.1875 2.0625 13.9375 2.5625 13.4375C3.0625 12.8958 3.3125 12.25 3.3125 11.5C3.3125 10.7917 3.04167 10.1667 2.5 9.625C2 9.08333 1.39583 8.8125 0.6875 8.8125V3.5C0.6875 2.79167 0.9375 2.16667 1.4375 1.625C1.97917 1.08333 2.60417 0.8125 3.3125 0.8125H24.6875C25.3958 0.8125 26 1.08333 26.5 1.625C27.0417 2.16667 27.3125 2.79167 27.3125 3.5V8.8125C26.6042 8.8125 25.9792 9.08333 25.4375 9.625Z" fill="white"/>
</svg>
